<svg width="1220" height="325" viewBox="0 0 1220 325" fill="none" xmlns="http://www.w3.org/2000/svg">
<path d="M547.806 111.986L552.402 324.056H627.907L619.371 96.228L547.806 111.986Z" fill="#0A3256"/>
<path d="M764.472 111.985L769.068 324.055H844.573L836.037 96.2278L764.472 111.985Z" fill="#0A3256"/>
<path d="M621.341 238.702H641.038L646.29 147.44H709.321V268.904H720.482V171.076H760.533L766.442 319.46L709.321 324.056H612.149L621.341 238.702Z" fill="#0A3256"/>
<path d="M556.341 124.46L572.099 122.49V142.187L557.654 144.157L556.341 124.46Z" fill="white"/>
<path d="M773.664 124.46L789.421 122.49V142.187L774.977 144.157L773.664 124.46Z" fill="white"/>
<path d="M578.008 119.207L593.765 117.238V136.934L579.321 138.904L578.008 119.207Z" fill="#1D2831"/>
<path d="M795.33 119.207L811.088 117.238V136.934L796.643 138.904L795.33 119.207Z" fill="white"/>
<path d="M597.705 113.955L613.462 111.985V131.682L599.018 133.652L597.705 113.955Z" fill="white"/>
<path d="M815.027 113.955L830.785 111.985V131.682L816.34 133.652L815.027 113.955Z" fill="#1D2831"/>
<path d="M578.008 152.036L593.765 150.066V169.763L579.321 171.733L578.008 152.036Z" fill="white"/>
<path d="M795.33 152.036L811.088 150.066V169.763L796.643 171.733L795.33 152.036Z" fill="#1D2831"/>
<path d="M599.018 149.41L614.775 147.44V167.137L600.331 169.107L599.018 149.41Z" fill="white"/>
<path d="M816.34 149.41L832.098 147.44V167.137L817.654 169.107L816.34 149.41Z" fill="white"/>
<path d="M556.998 154.662L572.755 152.692V172.389L558.311 174.359L556.998 154.662Z" fill="#1D2831"/>
<path d="M774.32 154.662L790.078 152.692V172.389L775.633 174.359L774.32 154.662Z" fill="white"/>
<path d="M578.008 179.611L593.765 177.641V197.338L579.321 199.308L578.008 179.611Z" fill="#1D2831"/>
<path d="M795.33 179.611L811.088 177.641V197.338L796.643 199.308L795.33 179.611Z" fill="#1D2831"/>
<path d="M599.018 176.985L614.775 175.015V194.712L600.331 196.682L599.018 176.985Z" fill="white"/>
<path d="M816.34 176.985L832.098 175.015V194.712L817.654 196.682L816.34 176.985Z" fill="white"/>
<path d="M558.311 184.864L574.068 182.894V202.591L559.624 204.561L558.311 184.864Z" fill="white"/>
<path d="M775.633 184.864L791.391 182.894V202.591L776.947 204.561L775.633 184.864Z" fill="white"/>
<path d="M580.634 208.5L596.392 206.531V226.227L581.947 228.197L580.634 208.5Z" fill="#1D2831"/>
<path d="M797.957 208.5L813.714 206.531V226.227L799.27 228.197L797.957 208.5Z" fill="white"/>
<path d="M600.331 205.874L616.088 203.904V223.601L601.644 225.571L600.331 205.874Z" fill="white"/>
<path d="M817.654 205.874L833.411 203.904V223.601L818.967 225.571L817.654 205.874Z" fill="white"/>
<path d="M558.311 213.752L574.068 211.783V231.48L559.624 233.449L558.311 213.752Z" fill="white"/>
<path d="M775.633 213.752L791.391 211.783V231.48L776.947 233.449L775.633 213.752Z" fill="#1D2831"/>
<path d="M583.26 238.702L599.018 236.732V256.429L584.573 258.399L583.26 238.702Z" fill="white"/>
<path d="M800.583 238.702L816.34 236.732V256.429L801.896 258.399L800.583 238.702Z" fill="white"/>
<path d="M602.957 234.763L618.715 232.793V252.49L604.27 254.46L602.957 234.763Z" fill="#1D2831"/>
<path d="M820.28 234.763L836.037 232.793V252.49L821.593 254.46L820.28 234.763Z" fill="#1D2831"/>
<path d="M654.596 158.267L670.459 157.519L668.939 177.157L654.385 178.006L654.596 158.267Z" fill="white"/>
<path d="M684.578 157.282L700.44 156.534L698.921 176.173L684.367 177.022L684.578 157.282Z" fill="white"/>
<path d="M683.265 188.797L699.127 188.049L697.607 207.688L683.054 208.537L683.265 188.797Z" fill="#1D2831"/>
<path d="M744.797 181.092L758.163 180.462L756.883 197.009L744.62 197.725L744.797 181.092Z" fill="#1D2831"/>
<path d="M726.359 181.923L739.725 181.293L738.444 197.841L726.181 198.556L726.359 181.923Z" fill="#1D2831"/>
<path d="M736.864 205.559L750.23 204.929L748.949 221.477L736.686 222.192L736.864 205.559Z" fill="#1D2831"/>
<path d="M725.046 231.821L738.412 231.191L737.131 247.739L724.868 248.455L725.046 231.821Z" fill="white"/>
<path d="M744.742 231.821L758.109 231.191L756.828 247.739L744.565 248.455L744.742 231.821Z" fill="white"/>
<path d="M735.551 254.145L748.917 253.514L747.636 270.062L735.373 270.778L735.551 254.145Z" fill="white"/>
<path d="M654.376 188.797L670.238 188.049L668.719 207.688L654.165 208.537L654.376 188.797Z" fill="white"/>
<path d="M667.507 222.939L683.37 222.191L681.85 241.829L667.297 242.678L667.507 222.939Z" fill="white"/>
<path d="M842.789 72.1662L847.933 309.532H932.444L922.891 54.5291L842.789 72.1662Z" fill="#0A3256"/>
<path d="M1085.3 72.1659L1090.44 309.532H1174.95L1165.4 54.5288L1085.3 72.1659Z" fill="#0A3256"/>
<path d="M925.095 213.998H947.142L953.021 111.85H1023.57V247.802H1036.06V138.305H1080.89L1087.5 304.388L1023.57 309.532H914.807L925.095 213.998Z" fill="#0A3256"/>
<path d="M852.342 86.1285L869.979 83.9238V105.97L853.812 108.175L852.342 86.1285Z" fill="white"/>
<path d="M1095.59 86.1285L1113.22 83.9238V105.97L1097.06 108.175L1095.59 86.1285Z" fill="white"/>
<path d="M876.593 80.2496L894.23 78.0449V100.091L878.063 102.296L876.593 80.2496Z" fill="#1D2831"/>
<path d="M1119.84 80.2496L1137.48 78.0449V100.091L1121.31 102.296L1119.84 80.2496Z" fill="white"/>
<path d="M898.64 74.3707L916.277 72.166V94.2124L900.109 96.4171L898.64 74.3707Z" fill="white"/>
<path d="M1141.88 74.3707L1159.52 72.166V94.2124L1143.35 96.4171L1141.88 74.3707Z" fill="#1D2831"/>
<path d="M876.593 116.994L894.23 114.789V136.835L878.063 139.04L876.593 116.994Z" fill="white"/>
<path d="M1119.84 116.994L1137.48 114.789V136.835L1121.31 139.04L1119.84 116.994Z" fill="#1D2831"/>
<path d="M900.109 114.054L917.746 111.85V133.896L901.579 136.101L900.109 114.054Z" fill="white"/>
<path d="M1143.35 114.054L1160.99 111.85V133.896L1144.82 136.101L1143.35 114.054Z" fill="white"/>
<path d="M853.077 119.933L870.714 117.729V139.775L854.547 141.98L853.077 119.933Z" fill="#1D2831"/>
<path d="M1096.32 119.933L1113.96 117.729V139.775L1097.79 141.98L1096.32 119.933Z" fill="white"/>
<path d="M876.593 147.858L894.23 145.654V167.7L878.063 169.905L876.593 147.858Z" fill="#1D2831"/>
<path d="M1119.84 147.858L1137.48 145.654V167.7L1121.31 169.905L1119.84 147.858Z" fill="#1D2831"/>
<path d="M900.109 144.919L917.746 142.714V164.761L901.579 166.965L900.109 144.919Z" fill="white"/>
<path d="M1143.35 144.919L1160.99 142.714V164.761L1144.82 166.965L1143.35 144.919Z" fill="white"/>
<path d="M854.547 153.738L872.184 151.533V173.579L856.016 175.784L854.547 153.738Z" fill="white"/>
<path d="M1097.79 153.738L1115.43 151.533V173.579L1099.26 175.784L1097.79 153.738Z" fill="white"/>
<path d="M879.533 180.193L897.17 177.989V200.035L881.002 202.24L879.533 180.193Z" fill="#1D2831"/>
<path d="M1122.78 180.193L1140.42 177.989V200.035L1124.25 202.24L1122.78 180.193Z" fill="white"/>
<path d="M901.579 177.254L919.216 175.049V197.095L903.049 199.3L901.579 177.254Z" fill="white"/>
<path d="M1144.82 177.254L1162.46 175.049V197.095L1146.29 199.3L1144.82 177.254Z" fill="white"/>
<path d="M854.547 186.072L872.184 183.868V205.914L856.016 208.119L854.547 186.072Z" fill="white"/>
<path d="M1097.79 186.072L1115.43 183.868V205.914L1099.26 208.119L1097.79 186.072Z" fill="#1D2831"/>
<path d="M882.472 213.998L900.109 211.793V233.84L883.942 236.044L882.472 213.998Z" fill="white"/>
<path d="M1125.72 213.998L1143.35 211.793V233.84L1127.19 236.044L1125.72 213.998Z" fill="white"/>
<path d="M904.519 209.589L922.156 207.384V229.431L905.988 231.635L904.519 209.589Z" fill="#1D2831"/>
<path d="M1147.76 209.589L1165.4 207.384V229.431L1149.23 231.635L1147.76 209.589Z" fill="#1D2831"/>
<path d="M962.317 123.968L980.072 123.131L978.37 145.112L962.081 146.062L962.317 123.968Z" fill="white"/>
<path d="M995.875 122.866L1013.63 122.029L1011.93 144.009L995.639 144.96L995.875 122.866Z" fill="white"/>
<path d="M994.405 158.14L1012.16 157.303L1010.46 179.284L994.17 180.234L994.405 158.14Z" fill="#1D2831"/>
<path d="M1063.28 149.516L1078.24 148.81L1076.8 167.332L1063.08 168.133L1063.28 149.516Z" fill="#1D2831"/>
<path d="M1042.64 150.446L1057.6 149.74L1056.17 168.262L1042.44 169.063L1042.64 150.446Z" fill="#1D2831"/>
<path d="M1054.4 176.901L1069.36 176.196L1067.93 194.718L1054.2 195.519L1054.4 176.901Z" fill="#1D2831"/>
<path d="M1041.17 206.296L1056.13 205.591L1054.7 224.113L1040.97 224.914L1041.17 206.296Z" fill="white"/>
<path d="M1063.22 206.296L1078.18 205.591L1076.74 224.113L1063.02 224.914L1063.22 206.296Z" fill="white"/>
<path d="M1052.93 231.283L1067.89 230.577L1066.46 249.099L1052.73 249.9L1052.93 231.283Z" fill="white"/>
<path d="M962.071 158.14L979.825 157.303L978.124 179.284L961.835 180.234L962.071 158.14Z" fill="white"/>
<path d="M976.768 196.354L994.523 195.517L992.822 217.498L976.532 218.448L976.768 196.354Z" fill="white"/>
<path d="M223.904 82.4496L219.035 307.126H139.042L148.084 65.7554L223.904 82.4496Z" fill="#0A3256"/>
<path d="M145.998 216.7H125.13L119.565 120.012H52.7879V248.697H40.9628V145.053H-1.4684L-7.72874 302.258L52.7879 307.127H155.736L145.998 216.7Z" fill="#0A3256"/>
<path d="M214.861 95.6659L198.167 93.5791V114.447L213.47 116.534L214.861 95.6659Z" fill="white"/>
<path d="M191.907 90.1009L175.213 88.0142V108.882L190.516 110.969L191.907 90.1009Z" fill="#1D2831"/>
<path d="M171.039 84.5365L154.345 82.4497V103.318L169.648 105.404L171.039 84.5365Z" fill="white"/>
<path d="M191.907 124.881L175.213 122.794V143.662L190.516 145.749L191.907 124.881Z" fill="white"/>
<path d="M169.648 122.099L152.954 120.012V140.88L168.257 142.967L169.648 122.099Z" fill="white"/>
<path d="M214.166 127.663L197.472 125.577V146.444L212.775 148.531L214.166 127.663Z" fill="#1D2831"/>
<path d="M191.907 154.096L175.213 152.009V172.877L190.516 174.964L191.907 154.096Z" fill="#1D2831"/>
<path d="M169.648 151.313L152.954 149.227V170.094L168.257 172.181L169.648 151.313Z" fill="white"/>
<path d="M212.775 159.661L196.08 157.574V178.442L211.383 180.528L212.775 159.661Z" fill="white"/>
<path d="M189.124 184.702L172.43 182.615V203.483L187.733 205.57L189.124 184.702Z" fill="#1D2831"/>
<path d="M168.257 181.92L151.562 179.833V200.701L166.865 202.787L168.257 181.92Z" fill="white"/>
<path d="M212.775 190.266L196.08 188.18V209.048L211.383 211.134L212.775 190.266Z" fill="white"/>
<path d="M186.342 216.699L169.648 214.613V235.48L184.951 237.567L186.342 216.699Z" fill="white"/>
<path d="M165.474 212.526L148.78 210.439V231.307L164.083 233.394L165.474 212.526Z" fill="#1D2831"/>
<path d="M110.766 131.483L93.9602 130.69L95.5704 151.496L110.989 152.396L110.766 131.483Z" fill="white"/>
<path d="M79.0015 130.439L62.196 129.647L63.8061 150.453L79.2246 151.352L79.0015 130.439Z" fill="white"/>
<path d="M80.3927 163.828L63.5872 163.035L65.1973 183.841L80.6158 184.741L80.3927 163.828Z" fill="#1D2831"/>
<path d="M15.2026 155.664L1.04155 154.997L2.39831 172.528L15.3905 173.286L15.2026 155.664Z" fill="#1D2831"/>
<path d="M34.7369 156.545L20.5759 155.877L21.9327 173.409L34.9249 174.167L34.7369 156.545Z" fill="#1D2831"/>
<path d="M23.6075 181.586L9.44646 180.918L10.8032 198.45L23.7955 199.208L23.6075 181.586Z" fill="#1D2831"/>
<path d="M36.1281 209.409L21.9671 208.742L23.3238 226.273L36.3161 227.032L36.1281 209.409Z" fill="white"/>
<path d="M15.2603 209.409L1.09929 208.742L2.45605 226.273L15.4483 227.032L15.2603 209.409Z" fill="white"/>
<path d="M24.9987 233.06L10.8376 232.392L12.1944 249.924L25.1866 250.682L24.9987 233.06Z" fill="white"/>
<path d="M110.999 163.828L94.1934 163.035L95.8035 183.841L111.222 184.741L110.999 163.828Z" fill="white"/>
<path d="M97.087 199.999L80.2815 199.206L81.8916 220.012L97.3101 220.911L97.087 199.999Z" fill="white"/>
<path d="M538.248 77.6386L533.379 302.315H453.385L462.428 60.9443L538.248 77.6386Z" fill="#0A3256"/>
<path d="M308.702 77.6386L303.833 302.315H223.839L232.882 60.9443L308.702 77.6386Z" fill="#0A3256"/>
<path d="M460.341 211.888H439.473L433.909 115.201H367.132V243.886H355.307V140.242H312.875L306.615 297.447L367.132 302.316H470.08L460.341 211.888Z" fill="#0A3256"/>
<path d="M529.205 90.8548L512.511 88.7681V109.636L527.814 111.723L529.205 90.8548Z" fill="white"/>
<path d="M298.964 90.8548L282.269 88.7681V109.636L297.572 111.723L298.964 90.8548Z" fill="white"/>
<path d="M506.25 85.2899L489.556 83.2031V104.071L504.859 106.158L506.25 85.2899Z" fill="#1D2831"/>
<path d="M276.009 85.2899L259.315 83.2031V104.071L274.618 106.158L276.009 85.2899Z" fill="white"/>
<path d="M485.383 79.7255L468.688 77.6387V98.5065L483.992 100.593L485.383 79.7255Z" fill="white"/>
<path d="M255.141 79.7255L238.447 77.6387V98.5065L253.75 100.593L255.141 79.7255Z" fill="#1D2831"/>
<path d="M506.25 120.07L489.556 117.983V138.851L504.859 140.938L506.25 120.07Z" fill="white"/>
<path d="M276.009 120.07L259.315 117.983V138.851L274.618 140.938L276.009 120.07Z" fill="#1D2831"/>
<path d="M483.992 117.288L467.297 115.201V136.069L482.6 138.156L483.992 117.288Z" fill="white"/>
<path d="M253.75 117.288L237.056 115.201V136.069L252.359 138.156L253.75 117.288Z" fill="white"/>
<path d="M528.51 122.852L511.815 120.766V141.633L527.118 143.72L528.51 122.852Z" fill="#1D2831"/>
<path d="M298.268 122.852L281.574 120.766V141.633L296.877 143.72L298.268 122.852Z" fill="white"/>
<path d="M506.25 149.285L489.556 147.198V168.066L504.859 170.153L506.25 149.285Z" fill="#1D2831"/>
<path d="M276.009 149.285L259.315 147.198V168.066L274.618 170.153L276.009 149.285Z" fill="#1D2831"/>
<path d="M483.992 146.503L467.297 144.416V165.284L482.6 167.37L483.992 146.503Z" fill="white"/>
<path d="M253.75 146.503L237.056 144.416V165.284L252.359 167.37L253.75 146.503Z" fill="white"/>
<path d="M527.118 154.849L510.424 152.763V173.631L525.727 175.717L527.118 154.849Z" fill="white"/>
<path d="M296.877 154.849L280.182 152.763V173.631L295.486 175.717L296.877 154.849Z" fill="white"/>
<path d="M503.468 179.891L486.774 177.804V198.672L502.077 200.759L503.468 179.891Z" fill="#1D2831"/>
<path d="M273.227 179.891L256.532 177.804V198.672L271.835 200.759L273.227 179.891Z" fill="white"/>
<path d="M482.6 177.109L465.906 175.022V195.89L481.209 197.976L482.6 177.109Z" fill="white"/>
<path d="M252.359 177.109L235.664 175.022V195.89L250.968 197.976L252.359 177.109Z" fill="white"/>
<path d="M527.118 185.455L510.424 183.369V204.236L525.727 206.323L527.118 185.455Z" fill="white"/>
<path d="M296.877 185.455L280.182 183.369V204.236L295.486 206.323L296.877 185.455Z" fill="#1D2831"/>
<path d="M500.686 211.889L483.992 209.802V230.67L499.295 232.756L500.686 211.889Z" fill="white"/>
<path d="M270.444 211.889L253.75 209.802V230.67L269.053 232.756L270.444 211.889Z" fill="white"/>
<path d="M479.818 207.715L463.124 205.628V226.496L478.427 228.583L479.818 207.715Z" fill="#1D2831"/>
<path d="M249.576 207.715L232.882 205.628V226.496L248.185 228.583L249.576 207.715Z" fill="#1D2831"/>
<path d="M425.109 126.672L408.304 125.879L409.914 146.685L425.333 147.585L425.109 126.672Z" fill="white"/>
<path d="M393.345 125.628L376.54 124.836L378.15 145.642L393.568 146.541L393.345 125.628Z" fill="white"/>
<path d="M394.737 159.017L377.931 158.224L379.541 179.03L394.96 179.93L394.737 159.017Z" fill="#1D2831"/>
<path d="M329.546 150.853L315.385 150.186L316.742 167.717L329.734 168.475L329.546 150.853Z" fill="#1D2831"/>
<path d="M349.081 151.734L334.92 151.066L336.276 168.598L349.269 169.356L349.081 151.734Z" fill="#1D2831"/>
<path d="M337.951 176.775L323.79 176.107L325.147 193.639L338.139 194.397L337.951 176.775Z" fill="#1D2831"/>
<path d="M350.472 204.598L336.311 203.931L337.668 221.462L350.66 222.221L350.472 204.598Z" fill="white"/>
<path d="M329.604 204.598L315.443 203.931L316.8 221.462L329.792 222.221L329.604 204.598Z" fill="white"/>
<path d="M339.342 228.249L325.181 227.581L326.538 245.113L339.53 245.871L339.342 228.249Z" fill="white"/>
<path d="M425.343 159.017L408.537 158.224L410.147 179.03L425.566 179.93L425.343 159.017Z" fill="white"/>
<path d="M411.431 195.187L394.625 194.395L396.235 215.201L411.654 216.1L411.431 195.187Z" fill="white"/>
<path d="M1281.43 20.9094L1275.33 302.315H1175.14L1186.47 0L1281.43 20.9094Z" fill="#0A3256"/>
<path d="M1240.49 30.4931L1219.58 27.8794V54.0162L1238.74 56.6298L1240.49 30.4931Z" fill="white"/>
<path d="M1214.35 23.5233L1193.44 20.9097V47.0464L1212.61 49.6601L1214.35 23.5233Z" fill="#1D2831"/>
<path d="M1240.49 74.0546L1219.58 71.4409V97.5777L1238.74 100.191L1240.49 74.0546Z" fill="#1D2831"/>
<path d="M1212.61 70.5692L1191.7 67.9556V94.0923L1210.86 96.706L1212.61 70.5692Z" fill="white"/>
<path d="M1240.49 110.645L1219.58 108.032V134.169L1238.74 136.782L1240.49 110.645Z" fill="#1D2831"/>
<path d="M1212.61 107.161L1191.7 104.547V130.684L1210.86 133.298L1212.61 107.161Z" fill="white"/>
<path d="M1237 148.979L1216.09 146.366V172.502L1235.26 175.116L1237 148.979Z" fill="white"/>
<path d="M1210.86 145.495L1189.95 142.881V169.018L1209.12 171.632L1210.86 145.495Z" fill="white"/>
<path d="M1233.52 189.056L1212.61 186.442V212.579L1231.77 215.193L1233.52 189.056Z" fill="white"/>
<path d="M1207.38 183.829L1186.47 181.215V207.352L1205.64 209.966L1207.38 183.829Z" fill="#1D2831"/>
</svg>
